<?xml version="1.0" encoding="UTF-8" standalone="no"?>
<svg width="523px" height="152px" viewBox="0 0 523 152" version="1.1" xmlns="http://www.w3.org/2000/svg" xmlns:xlink="http://www.w3.org/1999/xlink">
    <!-- Generator: Sketch 45.2 (43514) - http://www.bohemiancoding.com/sketch -->
    <title>nm</title>
    <desc>Created with Sketch.</desc>
    <defs>
        <polygon id="path-1" points="25.207 50.2691 25.207 0.4001 0.9043 0.4001 0.9043 50.2691 25.207 50.2691"></polygon>
        <polygon id="path-3" points="0 150.799 519.207 150.799 519.207 1 0 1"></polygon>
    </defs>
    <g id="Page-1" stroke="none" stroke-width="1" fill="none" fill-rule="evenodd">
        <g id="nm">
            <g id="Page-1">
                <polygon id="Fill-1" fill="#178DFF" points="44.9262 0.9994 33.7072 6.8664 35.9162 54.2444 0.0002 82.9344 1.7802 95.0974 48.4822 106.1534 65.9772 149.0234 74.3832 150.7994 99.1072 108.1734 133.6162 105.2964 96.8992 104.7794 71.0032 141.4404 56.3222 97.4054 17.5892 86.6094 51.1502 59.9444 47.6732 16.5274 82.0442 39.6224 125.4532 20.6424 114.2962 64.8784 140.3942 91.5574 119.8172 63.4804 134.5552 16.8084 127.2442 11.1164 83.8332 26.9224"></polygon>
                <path d="M368.0175,74.3352 C370.7555,75.0072 373.0485,75.6232 375.2985,75.9412 C377.5825,76.2662 379.8205,76.5462 382.0555,76.5462 C383.6615,76.5462 385.2005,76.3922 386.6655,76.0822 C388.1335,75.7722 389.4075,75.3082 390.4905,74.6892 C391.5725,74.0702 392.4455,73.3112 393.1085,72.4132 C393.7725,71.5162 394.1045,70.5102 394.1045,69.3962 C394.1045,68.1572 393.8425,67.1362 393.3195,66.3312 C392.7945,65.5272 392.0965,64.8442 391.2235,64.2872 C390.3485,63.7302 389.3375,63.2512 388.1855,62.8482 C387.0335,62.4462 385.7915,62.0592 384.4655,61.6872 L380.7985,60.4802 C376.3285,58.9942 373.0795,57.3232 371.0555,55.4652 C369.0285,53.6072 368.0175,51.1012 368.0175,47.9432 C368.0175,43.7342 369.7095,40.3912 373.0975,37.9142 C376.4855,35.4392 381.4615,34.1992 388.0285,34.1992 C390.7515,34.1992 393.4245,34.4312 396.0425,34.8962 C398.6625,35.3592 401.5245,35.9762 403.4805,36.5942 L403.4805,44.1442 C401.9435,43.6492 397.3345,42.6962 395.2045,42.2312 C393.0735,41.7682 390.7865,41.5352 388.3415,41.5352 C385.7565,41.5352 383.4705,41.9392 381.4795,42.7432 C379.4895,43.5482 378.4945,44.9722 378.4945,47.0152 C378.4945,48.0682 378.7375,48.9652 379.2275,49.7072 C379.7145,50.4502 380.3795,51.0862 381.2175,51.6112 C382.0555,52.1382 383.0155,52.5862 384.0995,52.9582 C385.1815,53.3292 386.3515,53.7012 387.6095,54.0722 L392.2185,55.4652 C393.8955,55.9612 395.4835,56.5492 396.9865,57.2302 C398.4865,57.9122 399.7795,58.7622 400.8635,59.7842 C401.9455,60.8052 402.8175,62.0442 403.4815,63.4982 C404.1445,64.9542 404.4765,66.7022 404.4765,68.7452 C404.4765,71.0362 403.9535,73.1252 402.9055,75.0132 C401.8575,76.9022 400.3725,78.5122 398.4535,79.8432 C396.5315,81.1742 394.2095,82.2102 391.4855,82.9542 C388.7615,83.6972 385.7565,84.0682 382.4755,84.0682 C379.1215,84.0682 376.1895,83.8662 373.6745,83.4642 C371.1605,83.0612 370.1815,82.9002 368.0175,82.2182 L368.0175,74.3352 Z" id="Fill-2" fill="#EF9B27"></path>
                <path d="M432.3603,75.4875 C429.1923,75.4875 429.3043,72.2635 429.3043,72.2635 L429.3043,42.2875 L440.7383,42.2875 L440.7383,34.2005 L429.3043,34.2005 L429.3043,20.8005 L419.3913,23.4885 L419.3913,34.2005 L410.7833,34.2005 L410.7833,42.2875 L419.3913,42.2875 L419.3913,73.1075 C419.3913,83.9145 430.0313,84.0345 430.0313,84.0345 L440.3323,84.0345 L440.3323,75.4875 L432.3603,75.4875 Z" id="Fill-4" fill="#EF9B27"></path>
                <path d="M479.1582,70.3908 C479.1582,73.2738 476.4812,75.0348 470.9272,76.1648 C465.2232,77.3258 457.3742,76.0018 456.3582,71.2918 C455.1242,65.5718 456.6722,61.3708 463.7092,59.3078 C470.7682,57.2388 479.1582,57.2378 479.1582,57.2378 L479.1582,70.3908 Z M486.4372,39.8268 C484.9872,37.7078 482.3482,35.8758 478.4582,35.0548 C467.5062,32.7448 449.3392,36.3138 449.3392,36.3138 L449.3392,43.9288 C449.3392,43.9288 465.3932,40.8078 471.5082,41.5528 C478.0622,42.3518 479.1582,45.7528 479.1582,47.9668 L479.1582,51.4088 C479.1582,51.4088 465.5802,51.2028 456.7712,54.4648 C448.9872,57.3478 447.0632,62.6018 447.0632,67.9138 C447.0632,73.2268 447.9852,84.0618 464.1332,84.0618 C479.9422,84.0618 488.5762,78.2948 488.5762,71.6058 L488.5762,47.3378 C488.5762,47.3378 488.6392,43.0438 486.4372,39.8268 L486.4372,39.8268 Z" id="Fill-6" fill="#EF9B27"></path>
                <g id="Group-10" transform="translate(494.000000, 33.799000)">
                    <mask id="mask-2" fill="white">
                        <use xlink:href="#path-1"></use>
                    </mask>
                    <g id="Clip-9"></g>
                    <path d="M0.9043,50.2691 L10.4363,50.2691 L10.4363,13.8001 C10.4363,11.5631 10.3933,8.4881 16.1843,8.4881 L23.6323,8.4881 L25.2073,0.4001 L14.5253,0.4001 C9.7793,0.4001 0.9043,0.4001 0.9043,13.2071 L0.9043,50.2691 Z" id="Fill-8" fill="#EF9B27" mask="url(#mask-2)"></path>
                </g>
                <path d="M179.2607,39.5593 C189.4297,38.6053 197.4977,40.9063 197.6937,47.2213 C197.8947,53.7323 194.6397,58.1843 185.9817,59.6353 C176.2847,61.2603 169.2517,61.2113 169.2517,61.2113 L169.2517,45.5173 C169.2517,45.5173 169.0937,40.5123 179.2607,39.5593 M177.1167,78.8003 C173.9647,78.3313 171.9157,77.5993 170.8537,76.5753 C169.7097,75.4723 169.1737,73.6963 169.1737,72.7633 L169.1737,65.3753 C169.1737,65.3753 180.4837,65.1513 187.7557,63.6203 C191.2397,62.8873 194.3377,62.0023 196.9587,60.2423 C199.6347,58.4453 202.5407,55.2083 203.0777,49.1303 C203.5567,43.7053 201.1167,39.1963 196.5827,36.7503 C192.3267,34.4543 185.8107,33.7183 178.6997,34.5003 C169.5807,35.5043 165.6897,39.0753 164.2457,41.1163 C163.4077,42.3023 163.3747,42.9503 163.3747,43.9283 L163.3747,71.0953 C163.3747,73.2463 163.3517,81.8333 175.0517,83.4863 C186.8207,85.1473 200.2317,82.7223 200.2317,82.7223 L200.2317,77.4493 C195.5157,78.5813 184.8077,79.9423 177.1167,78.8003" id="Fill-11" fill="#178DFF"></path>
                <path d="M269.8047,78.7087 C259.6297,79.5997 251.5677,77.3607 251.3707,71.0457 C251.1697,64.5347 254.4257,60.0837 263.0827,58.6317 C272.7797,57.0067 279.8127,57.0557 279.8127,57.0557 L279.8127,72.7507 C279.8127,72.7507 280.0097,77.8137 269.8047,78.7087 M271.9487,39.4667 C275.1017,39.9357 277.1497,40.6677 278.2117,41.6917 C279.3547,42.7937 279.8917,44.5707 279.8917,45.5037 L279.8917,52.8927 C279.8917,52.8927 268.5817,53.1157 261.3087,54.6467 C257.8257,55.3807 254.7267,56.2657 252.1067,58.0247 C249.4307,59.8217 246.5237,63.0587 245.9867,69.1367 C245.5077,74.5627 247.9477,79.0707 252.4827,81.5167 C256.7387,83.8127 263.2537,84.5487 270.3657,83.7667 C279.4847,82.7637 283.0857,79.4007 284.5797,77.3987 C285.5707,76.0727 285.6897,75.3167 285.6897,74.3387 L285.6897,47.1717 C285.6897,45.0207 285.7127,36.4337 274.0137,34.7817 C262.2447,33.1197 248.8327,35.5447 248.8327,35.5447 L248.8327,40.8177 C253.5497,39.6857 264.2577,38.3247 271.9487,39.4667" id="Fill-13" fill="#178DFF"></path>
                <polygon id="Fill-15" fill="#178DFF" points="243.8398 84.0681 227.7338 57.4741 241.8298 34.1991 236.0958 34.1991 224.8648 52.7401 213.6358 34.1991 207.9008 34.1991 221.9978 57.4741 205.8918 84.0681 211.6268 84.0681 224.8648 62.2091 238.1058 84.0681"></polygon>
                <path d="M339.3174,34.1994 C331.5404,34.1994 327.0694,36.2444 324.5744,38.7824 C322.0644,36.2724 317.5504,34.1994 309.5844,34.1994 C294.7484,34.1994 291.9394,41.6384 291.9394,45.7514 L291.9394,84.0654 L297.8084,84.0654 L297.8084,46.3614 C297.8084,43.0414 300.1774,38.6704 309.6734,38.6704 C319.2384,38.6704 321.6734,43.2704 321.6734,46.3614 L321.6734,84.0654 L327.5424,84.0654 L327.5424,46.3614 C327.5424,43.0414 329.9124,38.6704 339.4084,38.6704 C348.9724,38.6704 351.4064,43.2704 351.4064,46.3614 L351.4064,84.0654 L357.2764,84.0654 L357.2764,45.7514 C357.2764,42.1284 354.9004,34.1994 339.3174,34.1994" id="Fill-17" fill="#178DFF"></path>
                <path d="M387.8242,91.4636 L391.3502,91.4636 L391.3502,96.6176 L401.3412,96.6176 L401.3412,99.4616 L391.3502,99.4616 L391.3502,104.9696 L395.6872,104.9696 C400.1262,101.8906 404.5672,98.3366 409.0092,94.3076 L412.1432,96.6176 C408.4852,99.7006 404.8272,102.4826 401.1732,104.9696 L415.6692,104.9696 L415.6692,107.9916 L396.8622,107.9916 C396.4702,108.2306 395.8152,108.6446 394.9042,109.2356 C393.3372,110.1856 392.1612,110.8966 391.3782,111.3686 L412.3382,111.3686 L412.3382,114.3896 L388.2432,114.3896 L386.8722,118.1216 L407.2452,118.1216 C407.2452,118.3596 406.7792,124.3866 406.6132,125.5866 C405.9952,130.0556 403.1322,132.2776 397.2552,132.1616 L380.6892,132.1616 L380.6892,128.6076 C380.6892,128.6076 392.0292,128.8076 396.8622,128.7846 C400.8622,128.7656 402.5852,127.9386 402.8542,125.4636 C402.9852,124.2616 403.1322,122.7426 403.1322,120.9646 L382.1712,120.9646 L384.1302,115.4556 C380.0802,117.5886 375.8342,119.4846 371.3962,121.1426 C370.8732,120.1956 370.1532,119.1886 369.2412,118.1216 C377.5972,115.0416 384.8462,111.6656 390.9862,107.9916 L370.4172,107.9916 L370.4172,104.9696 L387.8242,104.9696 L387.8242,99.4616 L375.0912,99.4616 L375.0912,96.6176 L387.8242,96.6176 L387.8242,91.4636 Z" id="Fill-19" fill="#EF9B27"></path>
                <path d="M457.6425,94.2282 L459.7965,92.0952 C460.3165,92.5702 462.9395,94.7712 465.7075,96.6852 L463.1265,99.0262 C461.1675,97.0132 459.3375,95.4132 457.6425,94.2282 L457.6425,94.2282 Z M451.5415,91.2862 L455.2635,91.2862 C455.2635,94.9602 455.3285,97.8032 455.4595,99.8162 L467.0175,99.8162 L467.0175,103.0162 L455.4595,103.0162 C455.7195,106.3332 455.9155,109.7102 456.0475,113.1452 C456.6995,120.2542 458.0705,125.2912 460.1615,128.2512 C460.9455,129.3182 461.6615,129.7902 462.3165,129.6732 C462.9675,129.6732 463.3095,129.1332 463.4915,128.0742 C463.6965,126.8802 464.2755,121.4992 464.2755,121.4992 C465.7075,122.1182 467.0175,122.4482 467.8005,122.5642 C467.6685,124.6972 467.3415,126.7132 466.8215,128.6072 C466.1665,131.8062 464.6655,133.3442 462.3165,133.2282 C459.9645,133.2282 458.0055,131.9232 456.4395,129.3182 C454.3485,125.7632 453.0415,120.5512 452.5215,113.6782 C452.1295,109.7692 451.9335,106.2142 451.9335,103.0162 L434.3025,103.0162 L434.3025,99.8162 L451.7375,99.8162 C451.6055,97.9222 451.5415,95.0792 451.5415,91.2862 L451.5415,91.2862 Z M433.5195,127.5412 C435.8705,127.1852 438.3495,126.8302 440.9625,126.4742 L440.9625,113.1452 L434.3025,113.1452 L434.3025,110.1242 L450.5625,110.1242 L450.5625,113.1452 L444.4895,113.1452 L444.4895,125.9412 C447.1005,125.5862 449.6475,125.1722 452.1295,124.6972 L452.1295,128.0742 C448.8635,128.3102 442.9865,129.1402 434.4985,130.5622 L433.5195,127.5412 Z M425.2755,92.1992 C426.9115,93.9952 429.4355,96.4642 432.7355,99.4612 L429.6015,101.9492 C427.3785,99.3442 424.9635,96.8562 422.3535,94.4852 L425.2755,92.1992 Z M435.2825,118.6542 C435.2825,119.3652 435.4775,120.6712 435.8705,122.5642 L435.8705,122.9202 C434.5625,123.9872 432.4085,125.8242 429.4055,128.4292 C429.0135,128.7842 428.5545,129.2572 428.0345,129.8512 C427.5105,130.3232 427.1195,130.6782 426.8595,130.9172 L424.3115,128.2512 C425.4875,127.4242 426.0755,126.1192 426.0755,124.3422 L426.0755,108.5252 L420.5895,108.5252 L420.5895,105.5032 L429.6015,105.5032 L429.6015,123.9872 C430.1215,123.5142 430.9725,122.7422 432.1475,121.6762 C433.5825,120.2542 434.6265,119.2492 435.2825,118.6542 L435.2825,118.6542 Z" id="Fill-21" fill="#EF9B27"></path>
                <mask id="mask-4" fill="white">
                    <use xlink:href="#path-3"></use>
                </mask>
                <g id="Clip-24"></g>
                <path d="M481.733,106.925 L510.138,106.925 L510.138,102.837 L481.733,102.837 L481.733,106.925 Z M481.733,99.995 L510.138,99.995 L510.138,96.085 L481.733,96.085 L481.733,99.995 Z M478.011,109.769 L513.664,109.769 L513.664,93.241 L478.011,93.241 L478.011,109.769 Z M494.467,110.657 L498.188,110.657 L498.188,114.39 L516.211,114.39 L516.211,117.411 L498.188,117.411 L498.188,121.676 L514.84,121.676 L514.84,124.52 L498.188,124.52 L498.188,128.784 L518.366,128.784 L518.366,131.628 L473.114,131.628 L473.114,128.784 L494.467,128.784 L494.467,124.52 L479.186,124.52 L479.186,121.676 L494.467,121.676 L494.467,117.411 L480.558,117.411 C479.12,119.663 477.228,121.915 474.877,124.164 C473.31,122.742 472.395,121.973 472.135,121.854 C475.789,118.538 478.728,114.687 480.949,110.302 L484.28,111.368 C483.757,112.435 483.169,113.443 482.518,114.39 L494.467,114.39 L494.467,110.657 Z" id="Fill-23" fill="#EF9B27" mask="url(#mask-4)"></path>
            </g>
        </g>
    </g>
</svg>